<svg xmlns="http://www.w3.org/2000/svg" width="900" height="550" viewBox="0 0 900 550" preserveAspectRatio="xMidYMid meet"><path d="M562 3978 c-309 -310 -562 -569 -562 -576 0 -8 38 -55 85 -104 46 -50 82 -95 78 -101 -8 -13 976 -993 1006 -1002 19 -6 29 -2 43 15 16 20 18 45 19 244 0 264 6 311 43 343 l27 23 880 0 c940 0 932 0 958 48 7 14 11 138 11 366 0 343 0 345 -22 371 -16 18 -34 27 -60 28 l-38 2 0 83 0 82 -874 0 c-481 0 -881 3 -890 6 -14 5 -16 35 -16 229 0 205 -2 225 -19 246 l-19 24 -36 -19 c-20 -11 -37 -26 -38 -35 -1 -9 -5 53 -8 137 l-5 152 -563 -562z"  transform="translate(0.000000,640.000000) scale(0.100000,-0.100000)" fill="#000000" stroke="none"/></svg>
